<svg width="513" height="513" viewBox="0 0 513 513" fill="none" xmlns="http://www.w3.org/2000/svg">
<path d="M502.05 407.127L445.289 369.283L394.83 335.65C385.092 329.171 372.005 331.295 364.816 340.523L333.593 380.662C326.886 389.372 314.821 391.875 305.203 386.55C284.017 374.765 258.964 363.669 203.686 308.32C148.408 252.971 137.241 227.989 125.456 206.803C120.131 197.185 122.634 185.12 131.344 178.414L171.483 147.191C180.71 140.003 182.835 126.916 176.356 117.177L143.756 68.272L104.879 9.95602C98.262 0.0300207 85.016 -2.94998 74.786 3.18502L29.95 30.083C17.833 37.222 8.926 48.75 5.074 62.277C-7.187 106.98 -9.659 205.593 148.381 363.633C306.421 521.673 405.025 519.193 449.728 506.931C463.255 503.08 474.783 494.173 481.922 482.055L508.82 437.22C514.956 426.989 511.976 413.744 502.05 407.127Z" fill="#F2F2F2"/>
<path d="M291.309 79.447C374.151 79.539 441.286 146.673 441.378 229.516C441.378 234.391 445.33 238.344 450.206 238.344C455.081 238.344 459.034 234.392 459.034 229.516C458.932 136.927 383.899 61.894 291.31 61.792C286.435 61.792 282.482 65.744 282.482 70.62C282.481 75.494 286.433 79.447 291.309 79.447Z" fill="#F2F2F2"/>
<path d="M291.309 132.412C344.912 132.475 388.349 175.913 388.412 229.515C388.412 234.39 392.364 238.343 397.24 238.343C402.115 238.343 406.068 234.391 406.068 229.515C405.995 166.166 354.659 114.829 291.309 114.756C286.434 114.756 282.481 118.708 282.481 123.584C282.481 128.46 286.433 132.412 291.309 132.412Z" fill="#F2F2F2"/>
<path d="M291.309 185.378C315.674 185.407 335.418 205.151 335.447 229.516C335.447 234.391 339.399 238.344 344.275 238.344C349.15 238.344 353.103 234.392 353.103 229.516C353.064 195.405 325.421 167.762 291.31 167.723C286.435 167.723 282.482 171.675 282.482 176.551C282.481 181.426 286.433 185.378 291.309 185.378Z" fill="#F2F2F2"/>
</svg>
