<svg width="23" height="19" viewBox="0 0 23 19" fill="none" xmlns="http://www.w3.org/2000/svg">
<path d="M0 2.625V16.375C0 17.4297 0.820312 18.25 1.875 18.25H3.75V0.75H1.875C0.820312 0.75 0 1.60938 0 2.625ZM5 18.25H17.5V0.75H5V18.25ZM7.5 8.5625C7.5 8.40625 7.61719 8.25 7.8125 8.25H10V6.0625C10 5.90625 10.1172 5.75 10.3125 5.75H12.1875C12.3438 5.75 12.5 5.90625 12.5 6.0625V8.25H14.6875C14.8438 8.25 15 8.40625 15 8.5625V10.4375C15 10.6328 14.8438 10.75 14.6875 10.75H12.5V12.9375C12.5 13.1328 12.3438 13.25 12.1875 13.25H10.3125C10.1172 13.25 10 13.1328 10 12.9375V10.75H7.8125C7.61719 10.75 7.5 10.6328 7.5 10.4375V8.5625ZM20.625 0.75H18.75V18.25H20.625C21.6406 18.25 22.5 17.4297 22.5 16.375V2.625C22.5 1.60938 21.6406 0.75 20.625 0.75Z" fill="white"/>
</svg>
