<svg width="71" height="71" viewBox="0 0 71 71" fill="none" xmlns="http://www.w3.org/2000/svg">
<path d="M11.3803 44.7192L22.429 40.2997C22.9002 40.1101 23.2971 39.7726 23.5599 39.3379C23.8227 38.9033 23.9371 38.395 23.8861 37.8897L23.1265 30.2799C31.0363 27.4389 39.6882 27.4389 47.598 30.2799L46.8385 37.8897C46.7864 38.3952 46.9005 38.9039 47.1634 39.3387C47.4263 39.7736 47.8237 40.1109 48.2955 40.2997L59.3442 44.7192C59.8556 44.92 60.4209 44.936 60.9428 44.7645C61.4647 44.5931 61.9104 44.2449 62.2031 43.7801L67.7275 34.9411C68.0083 34.4916 68.1285 33.9601 68.0684 33.4335C68.0084 32.9069 67.7716 32.4162 67.3967 32.0415C49.6842 14.329 20.9989 14.3566 3.31402 32.0415C2.93887 32.4161 2.70184 32.9069 2.64163 33.4337C2.58143 33.9605 2.70162 34.4921 2.98256 34.9418L8.50693 43.7807C8.80201 44.2469 9.25034 44.5956 9.77478 44.7669C10.2992 44.9382 10.8669 44.9213 11.3803 44.7192Z" fill="white"/>
</svg>
