<svg width="50" height="50" viewBox="0 0 50 50" fill="none" xmlns="http://www.w3.org/2000/svg">
<path d="M7.03125 17.7419C10.918 17.7419 14.0625 20.9879 14.0625 25C14.0625 29.0121 10.918 32.2581 7.03125 32.2581C3.14453 32.2581 0 29.0121 0 25C0 20.9879 3.14453 17.7419 7.03125 17.7419ZM0 7.25806C0 11.2702 3.14453 14.5161 7.03125 14.5161C10.918 14.5161 14.0625 11.2702 14.0625 7.25806C14.0625 3.24597 10.918 0 7.03125 0C3.14453 0 0 3.24597 0 7.25806ZM0 42.7419C0 46.754 3.14453 50 7.03125 50C10.918 50 14.0625 46.754 14.0625 42.7419C14.0625 38.7298 10.918 35.4839 7.03125 35.4839C3.14453 35.4839 0 38.7298 0 42.7419Z" fill="black"/>
<path d="M25 17.7419C28.8867 17.7419 32.0312 20.9879 32.0312 25C32.0312 29.0121 28.8867 32.2581 25 32.2581C21.1133 32.2581 17.9688 29.0121 17.9688 25C17.9688 20.9879 21.1133 17.7419 25 17.7419ZM17.9688 7.25806C17.9688 11.2702 21.1133 14.5161 25 14.5161C28.8867 14.5161 32.0312 11.2702 32.0312 7.25806C32.0312 3.24597 28.8867 0 25 0C21.1133 0 17.9688 3.24597 17.9688 7.25806ZM17.9688 42.7419C17.9688 46.754 21.1133 50 25 50C28.8867 50 32.0312 46.754 32.0312 42.7419C32.0312 38.7298 28.8867 35.4839 25 35.4839C21.1133 35.4839 17.9688 38.7298 17.9688 42.7419Z" fill="black"/>
<path d="M42.9688 17.7419C46.8555 17.7419 50 20.9879 50 25C50 29.0121 46.8555 32.2581 42.9688 32.2581C39.082 32.2581 35.9375 29.0121 35.9375 25C35.9375 20.9879 39.082 17.7419 42.9688 17.7419ZM35.9375 7.25806C35.9375 11.2702 39.082 14.5161 42.9688 14.5161C46.8555 14.5161 50 11.2702 50 7.25806C50 3.24597 46.8555 0 42.9688 0C39.082 0 35.9375 3.24597 35.9375 7.25806ZM35.9375 42.7419C35.9375 46.754 39.082 50 42.9688 50C46.8555 50 50 46.754 50 42.7419C50 38.7298 46.8555 35.4839 42.9688 35.4839C39.082 35.4839 35.9375 38.7298 35.9375 42.7419Z" fill="black"/>
</svg>
