<svg width="50" height="50" viewBox="0 0 50 50" fill="none" xmlns="http://www.w3.org/2000/svg">
<path d="M18.6658 5.73459L10.9427 14.9998H2.08333C0.932292 14.9998 0 16.1185 0 17.4997V32.499C0 33.8791 0.932292 34.9988 2.08333 34.9988H10.9427L18.6658 44.264C19.9705 45.8296 22.2222 44.7296 22.2222 42.4964V7.50221C22.2222 5.2669 19.9688 4.17112 18.6658 5.73459ZM38.9193 0.414005C37.9496 -0.349501 36.6467 -0.0276409 36.0104 1.13793C35.3733 2.30142 35.6441 3.86488 36.6137 4.62839C42.3663 9.15839 45.7995 16.7737 45.7995 25.0004C45.7995 33.227 42.3663 40.8423 36.6137 45.3723C35.6441 46.1348 35.3733 47.6993 36.0104 48.8617C36.6215 49.9773 37.9141 50.3783 38.9193 49.5857C45.8568 44.1213 50 34.9291 50 24.9993C50 15.0696 45.8568 5.87833 38.9193 0.414005ZM41.6667 24.9993C41.6667 18.3819 38.8837 12.2978 34.2214 8.72507C33.25 7.98136 31.9618 8.32717 31.3464 9.50212C30.7309 10.6771 31.0182 12.2322 31.9896 12.977C35.4401 15.6216 37.5 20.1152 37.5 24.9993C37.5 29.8835 35.4401 34.377 31.9896 37.0217C31.0182 37.7654 30.7309 39.3205 31.3464 40.4965C31.9115 41.5756 33.1797 42.0735 34.2214 41.2735C38.8837 37.7008 41.6667 31.6177 41.6667 24.9993ZM29.3602 16.9924C28.355 16.333 27.0868 16.7674 26.5295 17.9767C25.9748 19.186 26.342 20.7058 27.3498 21.3734C28.4705 22.1119 29.1667 23.5025 29.1667 24.9993C29.1667 26.4972 28.4705 27.8867 27.3507 28.6252C26.3429 29.2929 25.9757 30.8126 26.5304 32.0219C27.0885 33.2364 28.3576 33.6676 29.3611 33.0062C31.8116 31.3865 33.3342 28.3189 33.3342 24.9983C33.3342 21.6776 31.8116 18.6111 29.3602 16.9924Z" fill="black"/>
</svg>
